<?xml version="1.0" standalone="no"?>
<!DOCTYPE svg PUBLIC "-//W3C//DTD SVG 20010904//EN"
 "http://www.w3.org/TR/2001/REC-SVG-20010904/DTD/svg10.dtd">
<svg version="1.0" xmlns="http://www.w3.org/2000/svg"
 width="1024.000000pt" height="680.000000pt" viewBox="0 0 1024.000000 680.000000"
 preserveAspectRatio="xMidYMid meet">

<g transform="translate(0.000000,680.000000) scale(0.100000,-0.100000)"
fill="#000000" stroke="none">
<path d="M5175 6794 c-16 -2 -73 -9 -125 -15 -52 -6 -117 -15 -145 -21 l-50
-11 135 -27 c157 -31 248 -57 383 -111 412 -164 765 -443 993 -787 171 -255
281 -575 313 -906 46 -466 -86 -1040 -321 -1400 l-43 -67 -7 98 c-7 111 -39
279 -63 336 -21 50 -82 117 -123 134 l-32 13 21 41 c11 23 19 43 17 45 -3 2
-20 -1 -39 -6 -44 -13 -49 -13 -49 3 1 6 20 21 43 33 52 25 66 59 66 169 1
126 -32 225 -81 241 l-22 7 25 20 24 20 -27 -5 c-23 -4 -28 -2 -29 16 -1 18
-2 18 -8 -4 -6 -21 -8 -23 -17 -9 -17 29 -52 39 -137 39 -201 0 -396 -116
-437 -260 -5 -19 -5 -28 1 -25 5 4 9 -10 9 -31 0 -35 1 -36 18 -21 25 23 32
21 32 -7 0 -13 7 -42 14 -65 15 -39 14 -42 -11 -72 l-27 -31 25 -19 c13 -10
25 -24 25 -31 4 -32 17 -58 30 -58 9 0 14 -11 14 -30 0 -43 24 -52 82 -30 54
20 62 15 53 -32 -10 -52 -96 -130 -177 -162 -36 -14 -75 -26 -86 -26 -12 0
-27 -7 -36 -15 -21 -21 -39 -19 -66 10 -46 49 -189 56 -237 12 -21 -18 -31
-20 -145 -15 -124 6 -198 24 -198 49 0 32 -43 98 -70 109 -38 16 -90 74 -90
100 0 23 -4 24 -31 10 -12 -7 -19 -21 -19 -40 0 -53 -31 -34 -135 81 -221 246
-617 593 -950 836 -425 308 -831 525 -1085 578 -93 20 -90 20 -90 -20 0 -24 5
-35 15 -35 13 0 15 -237 15 -2070 l0 -2070 35 0 35 0 0 2060 0 2060 20 0 c33
0 190 -64 317 -129 462 -236 1066 -680 1491 -1098 178 -174 230 -237 225 -268
-4 -19 1 -28 24 -41 27 -16 56 -55 91 -126 8 -15 25 -29 41 -33 20 -4 36 -22
61 -67 62 -110 64 -117 35 -130 -34 -16 -41 -45 -17 -71 11 -12 23 -35 27 -52
17 -78 28 -90 76 -86 10 1 21 -10 27 -29 11 -31 30 -38 49 -19 8 8 9 19 2 37
-12 32 2 47 54 55 46 7 47 -1 14 -99 -22 -65 -26 -69 -58 -74 -29 -4 -36 -11
-46 -43 -7 -21 -14 -63 -15 -94 -3 -59 -5 -57 64 -86 34 -15 36 -18 29 -49
-25 -108 -105 -181 -284 -257 -92 -39 -98 -41 -131 -27 -53 22 -76 -14 -35
-55 l20 -20 -48 6 c-121 16 -331 77 -452 132 -31 14 -67 29 -81 34 -67 25 160
-135 334 -235 130 -75 228 -123 358 -176 l107 -43 -45 -57 c-24 -31 -44 -61
-44 -67 0 -6 18 -22 40 -37 22 -14 40 -33 40 -41 0 -27 -32 -110 -83 -215 -45
-93 -62 -116 -147 -201 -132 -132 -181 -170 -230 -176 -25 -4 -45 -1 -55 7
-22 18 -37 0 -33 -36 3 -24 14 -34 78 -67 90 -47 129 -46 218 6 112 66 167 87
235 94 91 8 103 18 99 85 -9 158 -8 171 24 238 56 117 135 185 171 149 20 -20
40 -5 97 70 60 80 65 95 39 123 -15 17 -15 20 7 43 22 24 29 25 139 25 275 1
528 50 851 165 102 36 356 170 481 254 363 242 590 501 786 896 325 653 307
1394 -50 2090 -321 626 -965 1082 -1682 1190 -99 15 -392 27 -450 19z m-372
-3166 c45 -23 107 -49 137 -59 51 -16 55 -19 53 -46 -5 -60 -12 -72 -48 -79
-41 -7 -56 3 -92 59 -18 29 -30 38 -48 35 -20 -2 -28 7 -58 65 -20 37 -34 67
-31 67 2 0 41 -19 87 -42z m908 -210 c11 -42 8 -182 -4 -195 -4 -3 -14 0 -22
7 -18 15 -115 175 -115 190 0 9 80 37 112 39 12 1 21 -12 29 -41z m-426 -240
c25 -102 74 -256 96 -300 23 -44 26 -41 -96 -83 -44 -15 -103 -41 -131 -56
-28 -16 -54 -29 -57 -29 -4 0 -7 34 -7 75 0 41 3 75 8 75 4 0 33 -6 65 -14 33
-8 60 -10 63 -4 3 5 14 50 24 100 16 82 17 93 3 103 -13 9 -14 27 -8 108 4 53
11 97 15 97 4 0 16 -33 25 -72z"/>
<path d="M54 1267 c-9 -25 2 -34 53 -42 112 -17 113 -21 113 -388 0 -189 -4
-305 -11 -326 -14 -40 -54 -61 -119 -61 -47 0 -50 -2 -50 -25 l0 -25 383 0
c326 0 401 3 514 20 355 52 556 175 609 372 19 71 18 108 -5 168 -15 39 -16
50 -6 50 8 0 21 -10 29 -22 13 -19 16 -62 16 -265 0 -275 0 -274 -79 -288 -25
-4 -41 -12 -41 -21 0 -12 41 -14 245 -14 204 0 245 2 245 14 0 9 -16 17 -41
21 -69 12 -79 30 -79 145 0 94 1 100 21 100 34 0 55 -17 108 -88 73 -100 137
-156 202 -177 49 -17 93 -19 529 -18 702 2 670 1 670 18 0 10 -16 16 -51 21
-31 4 -53 13 -56 22 -4 8 8 43 25 78 l32 64 129 0 129 0 37 -66 c39 -69 40
-94 3 -94 -37 0 -68 -11 -68 -25 0 -15 359 -27 549 -18 147 7 172 22 69 41
-37 7 -68 19 -75 29 -15 19 -17 124 -6 301 5 89 9 110 18 100 10 -11 149 -238
249 -405 30 -51 32 -52 76 -52 l45 0 140 236 c77 130 148 246 157 257 16 20
17 10 18 -206 0 -256 1 -251 -75 -262 -29 -5 -45 -12 -45 -22 0 -12 39 -14
245 -14 203 0 245 2 245 14 0 9 -18 17 -47 22 -36 7 -51 15 -60 34 -6 14 -16
126 -23 258 -12 256 -9 274 43 284 22 4 29 -3 62 -66 21 -39 50 -93 65 -121
15 -27 73 -137 130 -243 l102 -192 86 0 87 0 51 93 c28 50 95 174 150 274 54
101 101 183 104 183 3 0 79 -124 169 -275 l163 -275 87 0 86 0 95 191 c52 105
97 192 100 194 3 2 5 -25 5 -58 2 -143 104 -246 305 -308 64 -20 96 -23 215
-23 151 0 224 14 323 59 99 46 184 133 198 205 4 16 11 30 17 30 6 0 8 -36 5
-100 -6 -117 -16 -134 -84 -145 -28 -4 -44 -11 -44 -21 0 -12 39 -14 250 -14
211 0 250 2 250 14 0 10 -16 17 -44 21 -68 11 -78 28 -84 145 l-5 100 30 0
c38 0 48 -9 122 -107 86 -115 139 -152 244 -172 85 -15 667 -2 667 15 0 7 -19
16 -45 20 -68 10 -75 26 -75 169 l0 120 163 -163 162 -162 182 0 c121 0 183 4
185 11 2 7 24 5 68 -7 100 -27 304 -25 395 3 175 55 243 160 175 270 -27 45
-105 86 -253 134 -167 54 -206 87 -181 154 19 50 153 71 230 36 37 -17 114
-93 114 -114 0 -6 57 -1 67 7 1 0 -7 35 -16 76 l-18 75 -74 12 c-149 24 -319
9 -407 -36 -91 -46 -136 -127 -108 -194 28 -68 86 -103 264 -162 139 -46 182
-78 182 -135 0 -30 -6 -44 -30 -64 -93 -78 -304 -19 -378 106 -16 28 -45 36
-70 19 -11 -7 -10 -22 8 -81 12 -39 20 -74 17 -76 -2 -2 -23 3 -47 11 -50 18
-103 59 -289 228 l-133 121 33 29 c19 15 84 59 144 97 104 65 191 100 252 100
14 0 23 6 23 15 0 13 -30 15 -210 15 -180 0 -210 -2 -210 -15 0 -10 10 -15 33
-15 17 0 39 -5 47 -10 12 -9 7 -18 -30 -51 -53 -47 -276 -219 -284 -219 -3 0
-6 53 -6 118 0 134 6 148 74 159 21 3 36 11 36 19 0 12 -44 14 -245 14 -211 0
-245 -2 -245 -15 0 -9 9 -15 25 -15 50 0 92 -25 99 -60 8 -41 6 -435 -3 -475
-5 -24 -14 -33 -44 -42 -32 -11 -43 -10 -69 3 -34 18 -158 138 -225 220 l-43
52 61 23 c35 12 79 39 100 59 34 32 39 43 39 81 0 74 -41 118 -139 149 -58 18
-90 20 -392 20 -272 0 -329 -2 -329 -14 0 -8 15 -16 38 -20 52 -8 62 -17 72
-62 20 -86 6 -218 -14 -137 -10 38 -59 105 -100 137 -107 81 -263 121 -441
112 -177 -9 -310 -54 -401 -138 l-47 -43 52 101 c96 181 139 226 232 239 43 6
49 10 49 31 l0 24 -265 0 -265 0 0 -24 c0 -21 5 -24 66 -30 82 -8 104 -19 104
-51 0 -32 -171 -430 -204 -473 -9 -12 -103 138 -301 482 l-50 86 -80 -2 -79
-3 -146 -287 c-80 -158 -148 -288 -151 -288 -3 0 -14 19 -24 43 -10 23 -40 87
-66 142 -152 324 -154 329 -121 339 9 3 43 8 75 12 52 6 57 9 57 30 l0 24
-350 0 -350 0 0 -24 c0 -21 7 -25 59 -35 49 -10 65 -19 95 -51 35 -39 66 -90
66 -110 0 -6 -53 -10 -155 -10 l-154 0 -117 -195 c-64 -107 -120 -195 -124
-195 -3 0 -67 88 -141 195 l-133 195 -188 0 c-152 0 -188 -3 -188 -14 0 -8 17
-16 47 -20 70 -9 83 -26 83 -106 0 -124 -36 -430 -53 -446 -11 -11 -62 69
-207 329 l-155 277 -50 -6 c-27 -3 -55 -11 -61 -17 -6 -7 -74 -118 -152 -247
-77 -129 -150 -248 -162 -263 -12 -15 -45 -41 -74 -57 -48 -28 -57 -30 -168
-30 -149 0 -148 -1 -148 152 l0 108 93 0 c105 0 131 -11 140 -60 6 -25 11 -30
37 -30 l30 0 0 115 0 115 -30 0 c-23 0 -31 -5 -36 -25 -11 -44 -39 -55 -141
-55 l-93 0 0 115 0 115 26 6 c38 10 193 -5 225 -21 15 -8 35 -33 46 -55 15
-34 22 -40 50 -40 l32 0 -5 68 c-3 37 -7 73 -10 80 -5 19 -744 18 -744 -2 0
-8 16 -16 39 -20 22 -3 46 -13 55 -21 22 -23 28 -101 24 -319 -3 -194 -3 -198
-27 -217 -50 -41 -75 -29 -201 99 -131 131 -151 159 -123 168 106 36 169 85
179 140 14 74 -37 131 -144 164 -62 19 -91 21 -376 20 l-310 0 -35 34 c-87 84
-236 146 -421 173 -65 10 -233 16 -537 20 -395 5 -443 3 -449 -10z m805 -72
c126 -30 209 -95 260 -204 22 -48 26 -69 26 -151 0 -82 -4 -103 -27 -152 -55
-118 -158 -194 -298 -219 -98 -17 -173 -1 -201 44 -18 30 -19 54 -19 359 0
252 3 327 13 331 27 11 186 6 246 -8z m6344 -190 c115 -48 178 -179 164 -343
-8 -94 -22 -134 -61 -174 -85 -87 -260 -70 -340 35 -50 65 -69 125 -70 222 -1
77 3 98 25 146 26 55 69 98 119 118 37 15 123 13 163 -4z m-5247 -6 c120 -31
142 -172 37 -244 -30 -20 -50 -25 -100 -25 l-63 0 0 128 c0 86 4 132 12 140
15 15 56 15 114 1z m6123 -13 c94 -49 90 -166 -9 -233 -26 -18 -47 -23 -96
-23 l-64 0 0 121 c0 155 4 163 79 156 32 -2 72 -12 90 -21z m-4586 -231 l47
-95 -100 0 c-55 0 -100 2 -100 5 0 12 92 185 98 185 4 0 29 -43 55 -95z"/>
<path d="M3173 248 c-5 -7 -36 -59 -67 -116 -35 -62 -67 -107 -79 -112 -16 -6
-3 -9 43 -8 36 0 57 2 48 5 -19 5 -22 20 -12 47 9 23 109 23 118 0 10 -27 7
-42 -11 -47 -10 -3 54 -5 142 -5 88 0 151 3 140 5 -38 10 -45 24 -45 94 0 38
3 69 8 69 4 0 50 -38 102 -85 59 -53 103 -85 118 -85 21 0 22 3 22 89 0 99 10
137 37 144 10 3 -13 5 -52 5 -43 0 -60 -3 -45 -7 23 -6 25 -12 28 -76 3 -66 2
-68 -15 -54 -10 8 -50 43 -89 77 l-71 62 -64 0 c-58 0 -62 -1 -39 -13 24 -12
25 -16 25 -106 0 -103 -9 -120 -57 -108 -20 5 -38 31 -84 119 -58 110 -80 133
-101 106z m27 -140 c0 -5 -16 -8 -35 -8 -40 0 -40 -1 -19 48 l15 37 19 -35
c11 -19 19 -38 20 -42z"/>
<path d="M4555 158 c-32 -57 -64 -111 -73 -120 -15 -18 -67 -25 -76 -10 -2 4
-8 51 -12 105 -7 96 -6 97 17 106 19 8 10 10 -43 10 l-68 1 -37 -70 c-21 -38
-41 -70 -44 -70 -3 0 -27 32 -53 70 l-46 70 -68 -1 c-37 -1 -57 -4 -44 -6 25
-5 25 -5 23 -93 -2 -93 -10 -120 -34 -130 -16 -6 -1 -9 48 -8 44 0 61 3 45 7
-24 6 -25 11 -28 84 -2 42 1 77 6 77 5 0 30 -38 56 -85 26 -47 54 -85 61 -85
7 0 36 43 64 95 29 52 54 95 56 95 3 0 5 -38 5 -85 0 -79 -2 -86 -22 -95 -15
-6 30 -8 132 -8 85 0 145 3 133 5 -25 5 -28 15 -13 44 15 28 105 28 120 0 14
-28 13 -39 -7 -44 -10 -3 23 -5 72 -6 78 -1 87 1 65 12 -16 8 -46 51 -85 124
-39 74 -66 113 -77 113 -10 0 -36 -36 -73 -102z m60 -8 c8 -16 15 -34 15 -40
0 -11 -52 -14 -63 -4 -5 5 22 74 30 74 1 0 9 -13 18 -30z"/>
<path d="M5419 251 c-66 -22 -109 -72 -109 -128 0 -86 134 -144 251 -110 130
38 157 166 47 223 -37 19 -149 28 -189 15z m135 -44 c29 -39 30 -135 2 -166
-21 -23 -65 -28 -97 -11 -49 27 -66 136 -28 184 30 38 92 34 123 -7z"/>
<path d="M6310 253 c-28 -10 -60 -47 -60 -69 0 -28 19 -44 93 -74 63 -26 80
-48 57 -75 -21 -26 -76 -18 -113 15 -45 39 -59 39 -46 0 25 -71 196 -62 243
13 19 31 -12 69 -75 92 -57 20 -89 41 -89 56 0 5 11 15 23 24 29 18 81 4 98
-26 5 -10 15 -19 20 -19 14 0 2 52 -14 62 -14 9 -114 9 -137 1z"/>
<path d="M6985 251 c-16 -4 -44 -15 -62 -24 -92 -48 -83 -162 15 -203 47 -19
144 -28 202 -17 44 8 45 9 48 51 2 26 9 45 18 49 36 14 6 23 -76 23 -49 0 -90
-4 -90 -9 0 -5 12 -11 28 -13 24 -3 27 -7 27 -43 0 -35 -3 -40 -25 -44 -33 -4
-85 25 -99 55 -6 14 -11 42 -11 64 0 95 122 138 196 69 13 -12 27 -20 30 -16
13 13 -7 55 -28 61 -30 8 -135 6 -173 -3z"/>
<path d="M3790 243 c26 -10 30 -25 30 -115 0 -79 -2 -88 -22 -102 -21 -15 -17
-16 67 -15 64 0 84 3 68 9 -22 9 -23 15 -23 114 0 101 1 105 23 109 12 2 -18
5 -68 5 -49 0 -83 -2 -75 -5z"/>
<path d="M4766 224 c-10 -38 0 -41 28 -11 17 18 35 27 56 27 l30 0 0 -93 c0
-93 -8 -119 -40 -130 -8 -3 30 -5 85 -5 55 0 89 3 75 7 -24 7 -25 9 -28 114
l-3 107 30 0 c20 0 36 -8 49 -25 26 -33 32 -32 32 5 l0 30 -154 0 -154 0 -6
-26z"/>
<path d="M5128 240 c21 -9 22 -15 22 -104 0 -87 -2 -96 -22 -110 -21 -15 -17
-16 67 -15 64 0 84 3 68 9 -22 9 -23 15 -23 110 0 95 1 101 23 110 15 6 -4 9
-68 9 -64 0 -83 -3 -67 -9z"/>
<path d="M5730 237 c23 -11 25 -19 28 -87 4 -93 -2 -118 -31 -130 -16 -6 -1
-9 53 -8 41 0 66 3 55 5 -38 10 -45 24 -45 94 0 38 3 69 8 69 4 -1 49 -39 101
-85 62 -57 101 -85 117 -85 23 0 24 2 24 89 0 99 10 137 37 144 10 3 -13 5
-52 5 -43 0 -60 -3 -45 -7 23 -6 25 -12 28 -76 3 -79 13 -81 -104 22 l-72 63
-63 0 c-58 0 -62 -1 -39 -13z"/>
<path d="M6520 243 c26 -10 30 -25 30 -113 0 -88 -4 -103 -30 -113 -8 -3 26
-5 75 -5 50 0 81 3 70 5 -28 7 -35 21 -35 73 l0 44 63 -62 63 -62 64 1 c47 0
59 3 44 9 -24 10 -154 128 -154 140 0 13 98 72 133 80 23 6 10 8 -48 8 -44 0
-72 -2 -62 -5 25 -7 21 -14 -33 -58 -66 -54 -70 -54 -70 -1 0 39 4 48 23 56
16 6 -3 9 -63 9 -47 -1 -78 -3 -70 -6z"/>
<path d="M30 130 c0 -7 500 -10 1480 -10 980 0 1480 3 1480 10 0 7 -500 10
-1480 10 -980 0 -1480 -3 -1480 -10z"/>
<path d="M7270 130 c0 -7 495 -10 1465 -10 970 0 1465 3 1465 10 0 7 -495 10
-1465 10 -970 0 -1465 -3 -1465 -10z"/>
</g>
</svg>
